<?xml version="1.0" encoding="utf-8"?>
<!-- Generator: Adobe Illustrator 16.0.3, SVG Export Plug-In . SVG Version: 6.00 Build 0)  -->
<!DOCTYPE svg PUBLIC "-//W3C//DTD SVG 1.1//EN" "http://www.w3.org/Graphics/SVG/1.1/DTD/svg11.dtd">
<svg version="1.1" xmlns="http://www.w3.org/2000/svg" xmlns:xlink="http://www.w3.org/1999/xlink" x="0px" y="0px"
	 width="18.933px" height="20.596px" viewBox="0 0 18.933 20.596" enable-background="new 0 0 18.933 20.596" xml:space="preserve">
<pattern  x="306.131" y="677.546" width="280.008" height="280.558" patternUnits="userSpaceOnUse" id="Dots2" viewBox="20.002 -300.697 280.008 280.558" overflow="visible">
	<g>
		<polygon fill="none" points="20.002,-300.697 300.01,-300.697 300.01,-20.14 20.002,-20.14 		"/>
		<g>
			<path stroke="#000000" stroke-miterlimit="10" d="M319.508-90.139c0,10.77-8.73,19.5-19.5,19.5s-19.5-8.73-19.5-19.5
				s8.73-19.5,19.5-19.5S319.508-100.908,319.508-90.139z"/>
			<path fill="#4D4D4D" stroke="#4D4D4D" stroke-miterlimit="10" d="M319.512-90.143c0,10.77-8.73,19.5-19.5,19.5
				c-3.51,0-6.81-0.93-9.66-2.561c1.49,0.371,3.05,0.561,4.66,0.561c10.77,0,19.5-8.73,19.5-19.5c0-7.25-3.96-13.58-9.84-16.939
				C313.191-106.992,319.512-99.303,319.512-90.143z"/>
		</g>
		<g>
			<path stroke="#000000" stroke-miterlimit="10" d="M179.504-20c0,10.77-8.73,19.5-19.5,19.5s-19.5-8.73-19.5-19.5
				s8.73-19.5,19.5-19.5S179.504-30.77,179.504-20z"/>
			<path fill="#4D4D4D" stroke="#4D4D4D" stroke-miterlimit="10" d="M179.508-20.004c0,10.77-8.73,19.5-19.5,19.5
				c-3.51,0-6.81-0.93-9.66-2.56c1.49,0.37,3.05,0.56,4.66,0.56c10.77,0,19.5-8.73,19.5-19.5c0-7.25-3.96-13.58-9.84-16.939
				C173.188-36.854,179.508-29.164,179.508-20.004z"/>
		</g>
		<g>
			<path stroke="#000000" stroke-miterlimit="10" d="M39.5-90.139c0,10.77-8.73,19.5-19.5,19.5s-19.5-8.73-19.5-19.5
				s8.73-19.5,19.5-19.5S39.5-100.908,39.5-90.139z"/>
			<path fill="#4D4D4D" stroke="#4D4D4D" stroke-miterlimit="10" d="M39.504-90.143c0,10.77-8.73,19.5-19.5,19.5
				c-3.51,0-6.81-0.93-9.66-2.561c1.49,0.371,3.05,0.561,4.66,0.561c10.77,0,19.5-8.73,19.5-19.5c0-7.25-3.96-13.58-9.84-16.939
				C33.184-106.992,39.504-99.303,39.504-90.143z"/>
		</g>
		<g>
			<path stroke="#000000" stroke-miterlimit="10" d="M319.508-230.418c0,10.77-8.73,19.5-19.5,19.5s-19.5-8.73-19.5-19.5
				s8.73-19.5,19.5-19.5S319.508-241.188,319.508-230.418z"/>
			<path fill="#4D4D4D" stroke="#4D4D4D" stroke-miterlimit="10" d="M319.512-230.422c0,10.77-8.73,19.5-19.5,19.5
				c-3.51,0-6.81-0.93-9.66-2.56c1.49,0.37,3.05,0.56,4.66,0.56c10.77,0,19.5-8.73,19.5-19.5c0-7.25-3.96-13.58-9.84-16.939
				C313.191-247.271,319.512-239.582,319.512-230.422z"/>
		</g>
		<g>
			<path stroke="#000000" stroke-miterlimit="10" d="M179.504-160.278c0,10.77-8.73,19.5-19.5,19.5s-19.5-8.73-19.5-19.5
				s8.73-19.5,19.5-19.5S179.504-171.048,179.504-160.278z"/>
			<path fill="#4D4D4D" stroke="#4D4D4D" stroke-miterlimit="10" d="M179.508-160.282c0,10.77-8.73,19.5-19.5,19.5
				c-3.51,0-6.81-0.93-9.66-2.56c1.49,0.37,3.05,0.56,4.66,0.56c10.77,0,19.5-8.73,19.5-19.5c0-7.25-3.96-13.58-9.84-16.939
				C173.188-177.132,179.508-169.442,179.508-160.282z"/>
		</g>
		<g>
			<path stroke="#000000" stroke-miterlimit="10" d="M39.5-230.418c0,10.77-8.73,19.5-19.5,19.5s-19.5-8.73-19.5-19.5
				s8.73-19.5,19.5-19.5S39.5-241.188,39.5-230.418z"/>
			<path fill="#4D4D4D" stroke="#4D4D4D" stroke-miterlimit="10" d="M39.504-230.422c0,10.77-8.73,19.5-19.5,19.5
				c-3.51,0-6.81-0.93-9.66-2.56c1.49,0.37,3.05,0.56,4.66,0.56c10.77,0,19.5-8.73,19.5-19.5c0-7.25-3.96-13.58-9.84-16.939
				C33.184-247.271,39.504-239.582,39.504-230.422z"/>
		</g>
		<g>
			<path stroke="#000000" stroke-miterlimit="10" d="M179.504-300.558c0,10.77-8.73,19.5-19.5,19.5s-19.5-8.73-19.5-19.5
				s8.73-19.5,19.5-19.5S179.504-311.327,179.504-300.558z"/>
			<path fill="#4D4D4D" stroke="#4D4D4D" stroke-miterlimit="10" d="M179.508-300.562c0,10.77-8.73,19.5-19.5,19.5
				c-3.51,0-6.81-0.93-9.66-2.56c1.49,0.37,3.05,0.56,4.66,0.56c10.77,0,19.5-8.73,19.5-19.5c0-7.25-3.96-13.58-9.84-16.939
				C173.188-317.411,179.508-309.722,179.508-300.562z"/>
		</g>
	</g>
</pattern>
<g id="Background" display="none">
</g>
<g id="Lower_Design" display="none">
</g>
<g id="Capa_7">
</g>
<g id="Upper_Design" display="none">
</g>
<g id="Text" display="none">
</g>
<g id="_x33_20x568_Background">
</g>
<g id="Capa_8">
	<g>
		<rect x="-4.869" y="-1.454" fill="#1A1A1A" width="318" height="433"/>
		<pattern  id="SVGID_1_" xlink:href="#Dots2" patternTransform="matrix(0.0666 0 0 0.0712 -6223.4243 -8185.8682)">
		</pattern>
		<rect x="-4.869" y="-1.454" fill="url(#SVGID_1_)" width="318" height="433"/>
	</g>
</g>
</svg>
